<?xml version="1.0" encoding="UTF-8" standalone="no"?>
<!-- Created with Inkscape (http://www.inkscape.org/) -->

<svg
   xmlns:dc="http://purl.org/dc/elements/1.1/"
   xmlns:cc="http://creativecommons.org/ns#"
   xmlns:rdf="http://www.w3.org/1999/02/22-rdf-syntax-ns#"
   xmlns:svg="http://www.w3.org/2000/svg"
   xmlns="http://www.w3.org/2000/svg"
   xmlns:sodipodi="http://sodipodi.sourceforge.net/DTD/sodipodi-0.dtd"
   xmlns:inkscape="http://www.inkscape.org/namespaces/inkscape"
   width="89.888863mm"
   height="18.546696mm"
   viewBox="0 0 89.888863 18.546695"
   version="1.1"
   id="svg8"
   inkscape:version="0.92.5 (2060ec1f9f, 2020-04-08)"
   sodipodi:docname="logo.svg">
  <defs
     id="defs2" />
  <sodipodi:namedview
     id="base"
     pagecolor="#ffffff"
     bordercolor="#666666"
     borderopacity="1.0"
     inkscape:pageopacity="0.0"
     inkscape:pageshadow="2"
     inkscape:zoom="1.4"
     inkscape:cx="242.90401"
     inkscape:cy="48.242056"
     inkscape:document-units="mm"
     inkscape:current-layer="layer1"
     showgrid="false"
     fit-margin-top="0"
     fit-margin-left="0"
     fit-margin-right="0"
     fit-margin-bottom="0"
     inkscape:window-width="1920"
     inkscape:window-height="1016"
     inkscape:window-x="0"
     inkscape:window-y="27"
     inkscape:window-maximized="1" />
  <metadata
     id="metadata5">
    <rdf:RDF>
      <cc:Work
         rdf:about="">
        <dc:format>image/svg+xml</dc:format>
        <dc:type
           rdf:resource="http://purl.org/dc/dcmitype/StillImage" />
        <dc:title></dc:title>
      </cc:Work>
    </rdf:RDF>
  </metadata>
  <g
     inkscape:label="Layer 1"
     inkscape:groupmode="layer"
     id="layer1"
     transform="translate(18.805004,-37.841554)">
    <path
       style="fill:#ffffff;fill-opacity:1;stroke:#5700c1;stroke-width:1;stroke-miterlimit:4;stroke-dasharray:none;stroke-opacity:1"
       d="m 10.313781,55.226935 c -2.1238503,-0.99272 -3.2765703,-3.424006 -3.2765703,-6.910879 0,-1.862308 0.0647,-2.137712 0.58804,-2.504295 0.73314,-0.513511 2.05731,-0.531741 2.7330503,-0.03763 0.4321,0.315957 0.53798,0.83067 0.67977,3.304497 0.1868,3.259097 0.61326,4.354717 1.63825,4.208817 0.4831,-0.0688 0.59148,-0.27921 0.65662,-1.27504 0.0429,-0.655976 -0.0889,-1.908414 -0.29301,-2.783197 -0.47854,-2.05129 -0.25251,-2.684132 1.04565,-2.927668 2.05019,-0.384617 2.99995,1.083099 3.04657,4.708001 0.0254,1.973354 -0.43892,3.069664 -1.69727,4.007614 -1.04914,0.78201 -3.66738,0.88926 -5.1211,0.20977 z m 11.54198,0.0846 c -2.00827,-0.90206 -3.07022,-2.56887 -3.41009,-5.352432 -0.40978,-3.35616 0.10774,-4.559181 1.9613,-4.559181 1.40896,0 1.63208,0.398823 1.81869,3.250842 0.20735,3.169028 0.73721,4.686661 1.63628,4.686661 1.04539,0 1.11052,-1.756146 0.20276,-5.467179 -0.30132,-1.231818 1.70748,-2.146991 3.08933,-1.407445 0.67055,0.358866 1.31453,2.616942 1.31402,4.607539 -5.3e-4,1.836515 -0.54731,3.142675 -1.65609,3.955705 -0.96984,0.71116 -3.66313,0.86629 -4.9562,0.28549 z m 11.53017,0.14694 c -1.15431,-0.36895 -2.72698,-2.05175 -3.19794,-3.421899 -0.22926,-0.666982 -0.48542,-2.105664 -0.56924,-3.197071 -0.13621,-1.773401 -0.0909,-2.061732 0.42619,-2.711979 0.44763,-0.562918 0.80451,-0.727604 1.57671,-0.727604 1.4959,0 1.78171,0.507196 1.94774,3.456438 0.16386,2.910814 0.68628,4.481065 1.49084,4.481065 1.01746,0 1.18088,-0.897306 0.66375,-3.644562 l -0.47359,-2.516 0.6071,-0.491595 c 0.79105,-0.640558 2.25647,-0.635679 2.90181,0.0097 0.56945,0.569456 1.08624,2.66336 1.08624,4.401205 0,1.574152 -0.68215,3.184122 -1.6373,3.864252 -0.8888,0.63288 -3.54288,0.90702 -4.82231,0.49809 z"
       id="path834"
       inkscape:connector-curvature="0"
       sodipodi:nodetypes="cscsscccscccccssssssccccscssssscccsccc" />
    <path
       style="fill:#6900ee;fill-opacity:1;stroke:#5700c1;stroke-width:1;stroke-miterlimit:4;stroke-dasharray:none;stroke-opacity:1"
       d="m 44.918151,55.70444 c -0.9443,-0.34722 -1.37554,-1.16029 -2.66105,-5.017312 -1.30789,-3.924212 -1.34344,-4.106526 -0.8969,-4.599947 0.54594,-0.603264 2.15077,-0.694918 2.87646,-0.16428 0.27957,0.204427 0.72294,1.275244 1.06813,2.579688 0.32458,1.2266 0.69779,2.182406 0.82936,2.124013 0.13156,-0.05839 0.56645,-1.010893 0.9664,-2.116667 0.83939,-2.32068 1.43817,-2.936539 2.8551,-2.936539 0.86758,0 1.84168,0.511698 1.84168,0.967446 0,0.583907 -3.85917,8.289678 -4.38513,8.755988 -0.63811,0.56573 -1.62524,0.72706 -2.49405,0.40761 z m 10.07157,-0.27532 c -0.47838,-0.38834 -0.63141,-0.97513 -0.94882,-3.638016 -0.20815,-1.74625 -0.45439,-3.500249 -0.54719,-3.897776 -0.14321,-0.613426 -0.0615,-0.763537 0.53987,-0.992188 1.08639,-0.413043 2.40338,-0.321429 3.06351,0.213108 0.52198,0.422679 0.64521,0.931638 0.99365,4.10402 0.37705,3.432682 0.37296,3.648932 -0.0784,4.147682 -0.60434,0.6678 -2.23577,0.70189 -3.0226,0.0632 z m 7.92011,0.0597 c -3.7853,-1.710116 -4.59294,-7.177707 -1.35629,-9.181787 0.60928,-0.377255 1.49127,-0.590757 2.77812,-0.672504 3.44254,-0.218686 5.5776,0.83861 5.5776,2.762059 0,1.967569 -1.63765,3.309731 -4.52051,3.704871 -1.34565,0.184442 -1.55819,0.393391 -1.15893,1.139385 0.37842,0.70711 1.03509,0.67434 2.54186,-0.12682 3.03104,-1.61162 5.43503,0.29634 2.47179,1.961766 -1.443,0.81102 -4.94693,1.03952 -6.33364,0.41303 z m 2.54256,-5.581303 c 1.50761,-0.715404 1.53506,-2.515073 0.0411,-2.695084 -0.8822,-0.106301 -1.78995,1.026189 -1.78995,2.233106 0,1.030371 0.35397,1.123877 1.74883,0.461978 z m -11.30174,-4.893478 c -0.83104,-0.304995 -1.35795,-1.346663 -1.13351,-2.240905 0.48269,-1.923205 4.07908,-1.368197 4.06779,0.627759 -0.005,0.941384 -0.24773,1.286393 -1.14303,1.626787 -0.85148,0.323731 -0.87241,0.323571 -1.79125,-0.01364 z"
       id="path834-3"
       inkscape:connector-curvature="0"
       sodipodi:nodetypes="cccccscsscccscccccccccsssccccccsccccccc" />
    <path
       style="fill:#5700c1;fill-opacity:1;stroke-width:0.25469995"
       d="m -11.011439,55.993549 c -0.0834,-0.217356 -0.014,-1.124864 0.1543,-2.016686 0.29696,-1.573821 0.2825,-1.676704 -0.49198,-3.499348 -1.58784,-3.736794 -1.09956,-3.301726 -3.76789,-3.357239 -2.15095,-0.04475 -2.40114,-0.103643 -3.00424,-0.70719 -0.73026,-0.730802 -0.89645,-1.926566 -0.39736,-2.859108 0.16873,-0.31529 0.97498,-1.019585 1.79167,-1.565102 1.41275,-0.94367 1.47967,-1.036079 1.37775,-1.90248 -0.22294,-1.895125 1.30651,-3.069771 1.75308,-1.346402 0.43053,1.661506 2.0731,1.669628 2.63053,0.01303 0.5334,-1.585182 1.5387197,-1.020688 1.8842797,1.058038 0.23295,1.401286 1.01562,1.652655 5.23379,1.680913 3.72081001,0.02493 4.42115001,0.135634 5.47604,0.865624 0.35022,0.242347 1.06463,0.579407 1.58759,0.749023 0.54566,0.176974 1.19688,0.653322 1.5282,1.117828 0.5092,0.713868 0.5712,1.079206 0.52511,3.094304 -0.0401,1.752433 0.0389,2.385571 0.33885,2.71702 0.61479,0.679342 0.35538,1.605053 -0.47661,1.700808 -0.52505,0.06043 -0.89017,-0.12835 -1.46453,-0.757188 l -0.7651,-0.837682 v 0.67082 c 0,1.107877 -0.92424,3.727891 -1.65132,4.681148 l -0.68107999,0.892942 -2.33593001,-0.07297 c -2.12279,-0.0663 -2.34266,-0.120022 -2.40979,-0.588626 -0.0444,-0.309997 0.23495,-0.811523 0.70043,-1.257477 0.81453,-0.780374 0.97046,-1.155913 0.47995,-1.155913 -0.16188,0 -0.67,-0.286538 -1.12915,-0.636751 -1.17583,-0.896851 -1.581,-0.823446 -1.75733,0.318375 -0.0811,0.52532 -0.29226,1.470892 -0.46918,2.101275 l -0.32167,1.14615 -2.09338,0.07404 c -1.7033497,0.06024 -2.1216397,3.97e-4 -2.2450297,-0.321153 z m 2.2907397,-1.599463 c 0.58014,-1.803855 0.74782,-3.436654 0.45998,-4.479146 -0.16786,-0.607923 -0.16994,-0.982769 -0.006,-1.084081 0.38133,-0.235675 0.55189,0.05811 0.70957,1.222251 0.12946,0.955735 0.23275,1.084933 1.03276,1.291893 0.90072,0.233012 3.74076,0.04781 4.23743,-0.276342 0.14892,-0.09718 0.25987,-0.738406 0.24656,-1.424938 -0.0352,-1.812755 0.5183,-1.801912 0.66882,0.01317 0.10389,1.252708 0.23509,1.555241 0.92385001,2.130248 0.96184,0.802978 0.98314,1.081933 0.20067,2.627521 l -0.60211,1.189316 h 0.71072 c 0.60826,0 0.80914,-0.201143 1.39329999,-1.395129 0.37542,-0.767319 0.77405,-2.056737 0.88585,-2.865373 0.1118,-0.808636 0.2849,-1.72813 0.38467,-2.043321 0.15703,-0.496114 0.0904,-0.573075 -0.49598,-0.573075 -0.45468,0 -1.09347999,-0.389219 -1.94304999,-1.183895 -1.19136001,-1.114384 -1.37036001,-1.19349 -3.04855001,-1.347314 -2.3124,-0.211956 -2.89472,-0.729551 -2.95749,-2.628782 l -0.0442,-1.334857 -1.18957,-0.172643 c -0.65427,-0.09496 -1.43775,-0.33743 -1.74109,-0.538835 -0.78345,-0.520192 -1.7025797,0.09038 -1.7025797,1.131001 0,1.002447 -0.55048,2.252124 -1.31638,2.988362 l -0.6306,0.606185 0.56627,1.176715 c 1.97126,4.096318 2.2421297,5.30138 1.65319,7.354869 -0.22766,0.793831 -0.20857,0.826093 0.4889397,0.826093 0.64151,0 0.77105,-0.140565 1.11494,-1.209825 z m 2.36864,-4.563374 c -0.0934,-0.09338 -0.1698,-0.379927 -0.1698,-0.636749 0,-0.598175 1.21996,-0.648117 1.44596,-0.0592 0.22591,0.588733 -0.81546,1.156643 -1.27616,0.695944 z m -3.9481697,-2.019777 c -0.79191,-0.554676 -0.65469,-1.613825 0.27625,-2.132288 0.6289997,-0.350311 0.7718297,-0.350311 1.4008397,0 0.93094,0.518463 1.06816,1.577612 0.27625,2.132288 -0.31934,0.223673 -0.75884,0.406678 -0.97667,0.406678 -0.21783,0 -0.65733,-0.183005 -0.9766697,-0.406678 z m 3.2440497,6.99087 c 0.42095,-1.207534 0.36327,-2.763692 -0.10243,-2.763692 -0.23233,0 -0.38205,0.23699 -0.38205,0.604727 0,0.3326 -0.17192,1.092007 -0.38205,1.687572 -0.47325,1.341334 -0.47871,1.273499 0.10243,1.273499 0.31443,0 0.58264,-0.281548 0.7641,-0.802106 z m 5.70075,0.06238 c 1.02041001,-1.727407 0.25435,-1.915363 -1.07326,-0.263327 l -0.80608,1.00305 h 0.72119 c 0.52593,0 0.83949,-0.20027 1.15815,-0.739723 z m 0.0159,-2.282897 c 0.42560001,-0.167482 0.43194001,-0.217057 0.0665,-0.520367 -0.27382,-0.227255 -0.71149,-0.277555 -1.35865,-0.156147 -0.89603,0.168096 -0.92451,0.201175 -0.46351,0.538269 0.53224,0.389186 1.02034,0.42762 1.7557,0.138245 z m 6.53383,-1.785494 c 0,-0.12293 -0.18624,-0.378079 -0.41387,-0.566992 -0.34536,-0.286623 -0.3866,-0.670395 -0.24916,-2.318415 0.17038,-2.042986 -0.23223,-3.767979 -0.87942,-3.767979 -0.19401,0 -0.22047,0.152549 -0.0773,0.445726 0.11968,0.245147 0.22372,1.557609 0.23118,2.916578 0.0111,2.036185 0.0967,2.56266 0.48587,2.992725 0.49326,0.545049 0.90273,0.680381 0.90273,0.298357 z M -13.440179,43.661818 c 0.14549,-1.029004 -1.00859,-1.431768 -1.49552,-0.521924 -0.21028,0.3929 -0.20209,0.621177 0.0324,0.903742 0.4721,0.568855 1.36149,0.336755 1.46309,-0.381818 z m 3.09779,-2.830503 c 0.5374097,-0.537415 0.6849997,-1.644309 0.2547,-1.910249 -0.14009,-0.08658 -0.2547,0.07515 -0.2547,0.359393 0,0.284242 -0.34385,0.771021 -0.7641,1.081729 -0.42026,0.310708 -0.7641,0.657985 -0.7641,0.771724 0,0.402723 1.02605,0.199555 1.5282,-0.302597 z m -3.54868,-0.84886 c -0.1495,-0.1495 -0.27182,-0.484892 -0.27182,-0.745312 0,-0.26042 -0.11462,-0.402655 -0.2547,-0.316077 -0.27631,0.170768 -0.3496,1.221053 -0.10245,1.4682 0.0837,0.08374 0.32067,0.08762 0.52652,0.0086 0.26523,-0.101777 0.29508,-0.222814 0.10245,-0.415439 z"
       id="path853"
       inkscape:connector-curvature="0" />
  </g>
</svg>
